<?xml version="1.0" encoding="UTF-8" standalone="no"?>
<!-- Created with Inkscape (http://www.inkscape.org/) -->

<svg
   version="1.1"
   id="svg1"
   width="476"
   height="524"
   viewBox="0 0 476 524"
   xmlns="http://www.w3.org/2000/svg"
   xmlns:svg="http://www.w3.org/2000/svg">
  <defs
     id="defs1" />
  <g
     id="g1">
    <path
       style="fill:#1e76bd;fill-opacity:1;stroke:none;stroke-width:1;stroke-dasharray:none;stroke-opacity:1"
       d="m 71.499999,490.5 v -21 h 12 12.000002 V 270.5 71.499995 H 104.5 h 9 v -18 -18 h 8.5 8.5 v -11.5 -11.5 H 238 345.5 v 11.5 11.5 h 8.5 8.5 v 18 18 h 9 9 V 270.5 v 199 h 12 12 v 21 21 H 238 71.499999 Z M 255.5,434 V 398.5 H 238 220.5 v 35.5 35.5 h 17.5 17.5 z m -83,-18 V 398.5 H 155 137.5 v 17.5 17.5 h 17.5 17.5 z m 166,0 V 398.5 H 321 303.5 v 17.5 17.5 h 17.5 17.5 z m -166,-95 V 303.5 H 155 137.5 v 17.5 17.5 h 17.5 17.5 z m 83,0 V 303.5 H 238 220.5 v 17.5 17.5 h 17.5 17.5 z m 83,0 V 303.5 H 321 303.5 v 17.5 17.5 h 17.5 17.5 z m -166,-95 V 208.5 H 155 137.5 v 17.5 17.5 h 17.5 17.5 z m 83,0 V 208.5 H 238 220.5 v 17.5 17.5 h 17.5 17.5 z m 83,0 V 208.5 H 321 303.5 v 17.5 17.5 h 17.5 17.5 z m -166,-95 V 113.5 H 155 137.5 v 17.5 17.5 h 17.5 17.5 z m 83,0 V 113.5 H 238 220.5 v 17.5 17.5 h 17.5 17.5 z m 83,0 V 113.5 H 321 303.5 v 17.5 17.5 h 17.5 17.5 z"
       id="path1" />
  </g>
</svg>
