<?xml version="1.0" encoding="UTF-8" standalone="no"?>
<!-- Created with Inkscape (http://www.inkscape.org/) -->

<svg
   version="1.1"
   id="svg1"
   width="484"
   height="516"
   viewBox="0 0 484 516"
   sodipodi:docname="etudiant.png"
   xmlns:inkscape="http://www.inkscape.org/namespaces/inkscape"
   xmlns:sodipodi="http://sodipodi.sourceforge.net/DTD/sodipodi-0.dtd"
   xmlns="http://www.w3.org/2000/svg"
   xmlns:svg="http://www.w3.org/2000/svg">
  <defs
     id="defs1" />
  <sodipodi:namedview
     id="namedview1"
     pagecolor="#ffffff"
     bordercolor="#000000"
     borderopacity="0.25"
     inkscape:showpageshadow="2"
     inkscape:pageopacity="0.0"
     inkscape:pagecheckerboard="0"
     inkscape:deskcolor="#d1d1d1" />
  <g
     inkscape:groupmode="layer"
     inkscape:label="Image"
     id="g1">
    <path
       style="fill:#1e76bd;fill-opacity:1"
       d="m 34.060776,432.64808 c 0,-46.22635 0.2557,-56.77161 1.49166,-61.5168 0.82042,-3.1498 2.58449,-7.88348 3.92016,-10.51929 1.33567,-2.63582 4.2626,-7.11272 6.50429,-9.94867 2.2417,-2.83596 6.55843,-6.9903 9.59274,-9.23188 3.03431,-2.24158 9.77833,-6.7603 14.98671,-10.0416 5.20837,-3.2813 14.31507,-8.63103 20.23711,-11.88829 5.92203,-3.25725 16.392334,-8.36569 23.267334,-11.35207 6.875,-2.98639 16.325,-6.81912 21,-8.51719 4.675,-1.69806 13.87949,-4.70641 20.45443,-6.68521 6.57493,-1.9788 18.49993,-4.91372 26.5,-6.52204 8.00006,-1.60832 20.17057,-3.57895 27.04557,-4.37917 6.875,-0.80023 17.675,-1.73124 24,-2.06891 6.325,-0.33767 18.01939,-0.13934 25.98754,0.44074 7.96814,0.58008 19.21814,1.74602 25,2.59098 5.78185,0.84496 16.13746,2.82321 23.01246,4.39611 6.875,1.5729 19.25,4.95646 27.5,7.51902 8.25,2.56256 20.829,6.94805 27.95333,9.74553 7.12433,2.79747 18.37433,7.83205 25,11.18795 6.62567,3.35589 16.72211,9.16546 22.43653,12.91015 5.71442,3.74469 13.36442,9.1968 17,12.11579 3.63558,2.91899 7.59095,6.37544 8.78971,7.681 1.19876,1.30556 3.8026,5.07375 5.78632,8.37375 1.98371,3.3 4.58267,8.925 5.77546,12.5 2.0971,6.28535 2.18077,8.28005 2.53377,60.40268 0.20078,29.64647 0.0999,54.95897 -0.22408,56.25 -0.58914,2.34732 -0.58914,2.34732 -208.07009,2.34732 -103.74048,0 -163.616114,0.0787 -206.624824,-0.14354 -0.61709,-26.61209 -0.85613,-27.75141 -0.85613,-55.64636 z M 229.78505,253.35 c -4.27666,-0.45208 -11.25166,-1.78603 -15.5,-2.96435 -4.24835,-1.17832 -11.34697,-3.82731 -15.77471,-5.88665 -4.42775,-2.05934 -10.50275,-5.31865 -13.5,-7.24291 -2.99726,-1.92427 -8.05865,-5.73205 -11.24753,-8.46175 -3.18889,-2.7297 -8.94082,-8.75146 -12.78207,-13.3817 -4.5579,-5.49408 -8.87429,-12.24963 -12.42525,-19.44664 -2.99263,-6.06541 -6.34888,-14.40302 -7.45832,-18.52802 -1.10944,-4.125 -2.42763,-11.55 -2.92929,-16.5 -0.50167,-4.95 -0.70443,-9.3375 -0.45059,-9.75 0.25384,-0.4125 3.52192,-0.75 7.26241,-0.75 3.74048,0 13.72643,-0.68813 22.19098,-1.52917 8.46456,-0.84104 19.2151,-2.23147 23.8901,-3.08984 4.675,-0.85837 11.875,-2.45605 16,-3.5504 4.125,-1.09435 11.55,-3.93455 16.5,-6.31156 4.95,-2.37701 14.625,-8.25897 21.5,-13.07101 6.875,-4.81205 18.47439,-13.18683 25.77643,-18.61061 13.27643,-9.86144 13.27643,-9.86144 16.5,-8.21287 1.77296,0.90671 5.9666,3.82058 9.3192,6.47528 3.35259,2.65469 8.56882,7.65574 11.59161,11.11345 3.02279,3.4577 9.4677,12.13673 14.32204,19.28673 4.85433,7.15 11.91317,17.18066 15.6863,22.29036 6.86025,9.29035 6.86025,9.29035 4.8612,17.70739 -1.09947,4.62937 -3.35237,11.92371 -5.00644,16.20965 -1.65408,4.28593 -5.63633,11.8426 -8.84945,16.7926 -3.21312,4.95 -8.28528,11.66799 -11.27146,14.92886 -2.98619,3.26087 -9.01883,8.59503 -13.40587,11.85369 -4.38704,3.25866 -11.91256,7.90167 -16.72337,10.3178 -4.81082,2.41614 -12.57274,5.50165 -17.24872,6.8567 -4.67599,1.35504 -13.06065,2.93155 -18.63258,3.50333 -5.57194,0.57179 -11.09562,0.97976 -12.27484,0.9066 -1.17923,-0.0731 -5.64313,-0.50289 -9.91978,-0.95496 z M 336.06078,131.83169 c -4.675,-6.9127 -10.57378,-15.34171 -13.10839,-18.73113 -2.53462,-3.38942 -8.24018,-9.62428 -12.67902,-13.85524 -4.43885,-4.23096 -10.52014,-9.31904 -13.51399,-11.30685 -2.99386,-1.9878 -7.76696,-4.22714 -10.60691,-4.9763 -5.16355,-1.36212 -5.16355,-1.36212 -20.87762,10.40731 -8.64274,6.47318 -21.25905,15.64951 -28.03626,20.39184 -6.7772,4.74232 -15.1022,9.97124 -18.5,11.6198 -3.39779,1.64857 -10.14143,4.12876 -14.98586,5.51153 -4.84443,1.38278 -14.96943,3.44477 -22.5,4.5822 -8.47889,1.28068 -21.53583,2.29346 -34.29366,2.66004 -13.93916,0.40053 -20.8118,0.25205 -21.25133,-0.45912 -0.35728,-0.5781 0.28319,-3.9056 1.42327,-7.39444 1.25657,-3.84532 2.40679,-11.06898 2.9208,-18.34335 0.54085,-7.65414 1.60225,-14.14157 2.93081,-17.9134 1.14558,-3.25237 3.70998,-9.16165 5.69866,-13.13174 1.98868,-3.97009 6.43762,-11.03454 9.88653,-15.69878 4.07072,-5.50517 9.02873,-10.64168 14.13186,-14.64067 4.32361,-3.38813 12.36111,-8.35126 17.86111,-11.02919 5.5,-2.67792 12.925,-5.79864 16.5,-6.93492 3.575,-1.13629 10.29543,-2.81773 14.93428,-3.73655 6.31599,-1.251 11.46461,-1.53598 20.5,-1.13467 7.65704,0.34009 14.98883,1.32325 20.06572,2.69074 4.4,1.18516 11.825,3.8383 16.5,5.89587 4.675,2.05757 11.70077,5.8543 15.61283,8.43717 5.7806,3.81655 7.94202,4.69614 11.5399,4.69614 2.43489,0 7.07543,0.68981 10.31231,1.53291 3.23688,0.8431 8.11093,2.74428 10.83123,4.22485 2.7203,1.48058 8.054,5.56949 11.85267,9.08647 3.79867,3.51699 8.07136,8.38191 9.49487,10.81095 1.42351,2.42904 3.4143,7.07071 4.42399,10.31483 1.00968,3.24412 2.53248,10.89348 3.38399,16.99858 0.85152,6.10509 1.5457,16.3722 1.54263,22.81579 -0.003,6.44359 -0.47422,13.40312 -1.047,15.46562 -0.57279,2.0625 -1.35778,3.74151 -1.74442,3.73112 -0.38665,-0.0104 -4.528,-5.67472 -9.203,-12.58741 z"
       id="path1"
       sodipodi:nodetypes="ssssssssssssssssssssssssssscsssssssssssssssssssssssssssssssssssssssssssssssssssssssssssssssssssss" />
  </g>
</svg>
