<?xml version="1.0" encoding="UTF-8" standalone="no"?>
<!-- Created with Inkscape (http://www.inkscape.org/) -->

<svg
   version="1.1"
   id="svg1"
   width="512"
   height="512"
   viewBox="0 0 512 512"
   xmlns="http://www.w3.org/2000/svg"
   xmlns:svg="http://www.w3.org/2000/svg">
  <defs
     id="defs1" />
  <g
     id="g1">
    <path
       d="m 416.36244,43.294288 c -13.72336,2.474304 -23.53622,12.071716 -33,21.535492 l -29,29 c -4.33179,4.331787 -8.70938,8.62283 -12.99536,13 -1.77677,1.81458 -3.70678,4.14839 -6.76868,7.39634 3.17011,3.14708 10.60065,10.44027 13.76404,13.60366 l 36,36 c 3.10715,3.10715 10.53858,10.84274 13.41369,13.62928 4.04473,-3.56942 6.66212,-5.71995 8.58631,-7.63004 l 13,-12.99924 27,-27 c 10.27469,-10.27469 20.74734,-20.92932 22.71063,-36 3.97611,-30.521667 -22.126,-56.049835 -52.71063,-50.535492"
       style="fill:#3b4651;fill-opacity:1;stroke:none"
       id="path1-1" />
    <path
       style="fill:#316ca3;stroke:none"
       d="m 229.60856,345.17618 h 1 l 155,-155 -17,-18 -29,-29 -11,-10.97995 -5.97955,-5.15715 -10.02045,9.1371 -25,25 -89,89 -22,22 -9.74307,10.45979 5.76314,5.54021 10.97993,11 46,46 M 80.608557,134.60443 c -19.348361,2.77805 -35.497584,17.41266 -36.910491,37.57175 -1.503299,21.44882 -0.0895,43.49484 -0.0895,65 v 130 48 c 0,11.5358 -0.707478,22.57318 5.174381,33 14.898796,26.41125 46.27261,21 71.825623,21 h 157 45 c 9.26376,0 19.09558,0.98102 28,-2.10107 16.66718,-5.76902 26.18338,-20.88144 27.83023,-37.89893 1.36356,-14.09006 0.16977,-28.84348 0.16977,-43 v -85 -42 c -0.009,-5.33298 -1.5e-4,-12.03674 -6.01852,-14.24228 -4.72931,-1.73312 -9.6984,1.54743 -10.70295,6.25772 -2.48788,11.66541 -0.27853,26.05329 -0.27853,37.98456 v 111 c 0,14.72412 3.36893,33.48456 -8.09335,44.90585 -7.36917,7.34287 -16.23587,7.09415 -25.90665,7.09415 h -40 -147 -42.000003 c -7.02818,0 -15.35965,1.22034 -22,-1.48303 -15.84546,-6.45087 -16.000001,-21.01947 -16.000001,-35.51697 v -28 -169 -30 c 0,-12.21164 -0.566299,-23.23807 10.00386,-31.60956 11.842271,-9.379 32.825814,-5.39044 46.996144,-5.39044 h 105 28 c 4.326,0 9.89706,0.85196 13.78625,-1.45679 6.1305,-3.63925 4.38611,-12.36056 -1.80169,-14.80093 -3.31629,-1.30789 -7.49355,-0.74228 -10.98456,-0.74228 h -21 -99 c -16.60218,0 -34.564063,-1.93161 -51.000003,0.42825"
       id="path1" />
    <path
       d="m 157.17354,297.74141 c -4.69614,19.81702 -13.28734,39.90906 -20.42438,59 -2.31592,6.19489 -9.10863,17.68161 -3.82268,23.64231 5.58171,6.29419 16.90517,-0.37809 23.24706,-2.69553 19.55205,-7.14472 39.75377,-16.14893 60,-20.94678 l -29,-30 z"
       style="fill:#3b4651;fill-opacity:1;stroke:none"
       id="path1-3" />
  </g>
</svg>
