<?xml version="1.0" encoding="UTF-8" standalone="no"?>
<!-- Created with Inkscape (http://www.inkscape.org/) -->

<svg
   version="1.1"
   id="svg1"
   width="494"
   height="505"
   viewBox="0 0 494 505"
   xmlns="http://www.w3.org/2000/svg"
   xmlns:svg="http://www.w3.org/2000/svg">
  <defs
     id="defs1" />
  <g
     id="g1">
    <g
       id="g2"
       transform="translate(-22.000268,-13.534335)">
      <path
         style="fill:#2076bb;stroke:none"
         d="m 213,73 -80,1.22e-4 c -11.6998,0.0018 -25.24478,-1.144714 -33.699097,8.638489 C 92.492638,89.517029 93.010071,100.23663 93.001122,110 L 93,166 v 228 l 5.87e-4,61 c 0.0053,9.98532 -0.763771,21.25638 6.300316,29.29193 7.319927,8.32654 18.436307,8.66342 28.699097,8.70203 17.99951,0.0677 36.00037,0.006 54,0.006 h 156 c 26.58423,0 53.44568,1.12006 80,-0.12927 3.36969,-0.15857 6.75217,-0.51886 9.98584,-1.52619 C 445.68375,485.83136 444.9993,468.20831 444.99997,453 L 445,331 V 145 c 0,-13.33292 0.0543,-26.66721 -0.007,-40 -0.0439,-9.532776 -0.65997,-19.205658 -8.49228,-25.83548 C 427.18924,71.282684 413.33679,73.000214 402,73 H 326 C 325.9572,66.644196 326.061,60.048981 323.64941,54.049377 316.09668,35.259613 292.28079,39 276,39 H 261 C 248.39062,39 231.77469,36.298035 221.3896,45.06546 212.81409,52.305176 213.01741,62.722229 213,73 m 56.00027,-10.613159 c 21.06733,0 21.17585,33.031372 -0.003,32.727295 -20.71962,-0.297486 -21.013,-32.727295 0.003,-32.727295 M 190,107 v 34 h 158 v -34 h 63 V 459 H 127 V 107 h 63 m 91,80 v 22 h 96 v -22 h -96 m 0,68 v 22 h 96 v -22 h -96 m 0,68 v 22 h 96 v -22 h -96 m 0,68 v 22 h 96 v -22 z"
         id="path1" />
      <path
         d="m 192.28544,223.00649 c 7.7238,-7.72146 37.74146,-37.15182 47.51055,-47.88724 -4.15404,-4.68855 -4.09995,-4.99257 -10.1963,-11.00906 -12.03003,11.68983 -26.40574,25.78584 -37.1367,37.38223 -3.45666,-3.46177 -5.91429,-5.77132 -15.09136,-14.83345 -6.46388,6.30186 -6.75704,6.50041 -10.51483,10.41482 10.90517,11.2147 13.509,14.46924 25.28934,25.98744"
         style="fill:#2076bb;stroke:none"
         id="path1-3" />
      <path
         d="m 192.2857,290.39846 c 7.7238,-7.72146 37.74146,-37.15182 47.51055,-47.88724 -4.15404,-4.68855 -4.09995,-4.99257 -10.1963,-11.00906 -12.03003,11.68983 -26.40574,25.78584 -37.1367,37.38223 -3.45666,-3.46177 -5.91429,-5.77132 -15.09136,-14.83345 -6.46388,6.30186 -6.75704,6.50041 -10.51483,10.41482 10.90517,11.2147 13.509,14.46924 25.28934,25.98744"
         style="fill:#2076bb;stroke:none"
         id="path1-1" />
      <path
         d="m 193.56508,360.20213 c 7.7238,-7.72146 37.74146,-37.15182 47.51055,-47.88724 -4.15404,-4.68855 -4.09995,-4.99257 -10.1963,-11.00906 -12.03003,11.68983 -26.40574,25.78584 -37.1367,37.38223 -3.45666,-3.46177 -5.91429,-5.77132 -15.09136,-14.83345 -6.46388,6.30186 -6.75704,6.50041 -10.51483,10.41482 10.90517,11.2147 13.509,14.46924 25.28934,25.98744"
         style="fill:#2076bb;stroke:none"
         id="path1-36" />
      <path
         d="m 191.80113,427.09134 c 7.7238,-7.72146 37.74146,-37.15182 47.51055,-47.88724 -4.15404,-4.68855 -4.09995,-4.99257 -10.1963,-11.00906 -12.03003,11.68983 -26.40574,25.78584 -37.1367,37.38223 -3.45666,-3.46177 -5.91429,-5.77132 -15.09136,-14.83345 -6.46388,6.30186 -6.75704,6.50041 -10.51483,10.41482 10.90517,11.2147 13.509,14.46924 25.28934,25.98744"
         style="fill:#2076bb;stroke:none"
         id="path1-18" />
    </g>
  </g>
</svg>
