<?xml version="1.0" encoding="UTF-8" standalone="no"?>
<!-- Created with Inkscape (http://www.inkscape.org/) -->

<svg
   version="1.1"
   id="svg1"
   width="537"
   height="465"
   viewBox="0 0 537 465"
   xmlns="http://www.w3.org/2000/svg"
   xmlns:svg="http://www.w3.org/2000/svg">
  <defs
     id="defs1" />
  <g
     id="g1">
    <path
       style="fill:#1e76bd;fill-opacity:1"
       d="m 225.05725,445.5877 c -26.09829,-0.87134 -70.96281,-6.47727 -87.5,-10.93334 -5.225,-1.40792 -11.86225,-3.19244 -14.74944,-3.96561 -6.49873,-1.74031 -18.47886,-7.68451 -23.55799,-11.6888 l -3.80744,-3.00171 0.3508,-51.12048 0.35079,-51.12048 1.81817,-5.5 c 3.85268,-11.65449 8.38604,-18.44343 17.59511,-26.34962 7.37901,-6.33503 6.94297,-6.00824 14.68297,-11.0043 14.48672,-9.35098 22.80477,-13.20729 59.81703,-27.73165 11.55,-4.53245 21.7875,-9.11724 22.75,-10.18841 l 1.75,-1.94759 v -7.06549 -7.06549 l -6.55381,-6.45784 c -9.68828,-9.5464 -17.81301,-22.59391 -21.60134,-34.68961 -1.87762,-5.99503 -3.84215,-19.15668 -3.84348,-25.75 l -0.001,-6.75 h -13.5 c -7.82385,0 -13.5,-0.39793 -13.5,-0.94642 0,-0.52054 1.591,-3.66105 3.53555,-6.97893 4.51866,-7.70992 9.90266,-22.57631 12.04047,-33.24634 7.60781,-37.971449 32.81313,-65.928176 70.92398,-78.666029 3.3,-1.102965 11.42267,-2.562271 18.05038,-3.242903 l 12.05038,-1.237513 8.52353,1.100278 c 10.78109,1.391698 12.57955,2.275545 16.87571,8.293494 1.925,2.696489 3.81752,4.907581 4.20559,4.913538 0.38808,0.006 2.36337,-1.11417 4.38955,-2.48917 4.52235,-3.06895 4.72097,-3.068866 10.90486,0.0046 8.03309,3.992532 11.51924,6.3353 18.97528,12.751803 15.58786,13.414557 24.84881,27.233297 31.18966,46.539692 l 3.51552,10.70391 0.54221,10.55639 0.5422,10.55639 -2.09159,4.44361 c -1.15037,2.44399 -3.18038,6.24361 -4.51113,8.44361 -1.33075,2.2 -3.9766,6.72742 -5.87967,10.06092 l -3.46014,6.06093 -0.67645,6.93907 c -1.96242,20.1307 -12.13339,40.87803 -26.73379,54.53315 l -4.9121,4.59406 v 7.53348 c 0,8.89549 -0.096,8.78099 11.28453,13.45388 11.23033,4.6112 33.54562,13.3245 34.12484,13.3245 0.89287,0 18.09805,8.02204 25.09063,11.69869 27.8213,14.62824 43.22709,30.59374 46.49846,48.1878 0.58402,3.14097 1.00154,26.34648 1.00154,55.66483 v 50.27834 l -4.75,3.40405 c -6.96296,4.98994 -17.20651,9.16101 -32.34596,13.17095 -21.04329,5.57368 -62.00269,10.82836 -92.70995,11.89377 l -9.3059,0.32287 0.53863,-3.56065 c 0.57857,-3.82467 3.38941,-28.49484 9.06488,-79.56065 1.95606,-17.6 5.09212,-45.725 6.969,-62.5 1.87688,-16.775 3.67867,-33.22658 4.00396,-36.55906 l 0.59145,-6.05907 -4.77806,-2.16495 c -2.62793,-1.19072 -6.42495,-3.52593 -8.43782,-5.18936 -4.38817,-3.62636 -8.84023,-12.10748 -8.84023,-16.84054 v -3.42028 l -2.25,0.65503 c -23.05526,6.71192 -39.05089,7.15154 -55.41086,1.52289 -7.1134,-2.44737 -7.33914,-2.43577 -7.33914,0.3772 0,8.44361 -7.24045,18.21116 -16.75213,22.59908 -3.86625,1.78357 -5.24921,2.96829 -5.25297,4.5 -0.003,1.14348 1.31917,13.55406 2.93773,27.57906 1.61856,14.025 4.56038,40.125 6.53738,58 1.977,17.875 4.91852,44.2 6.53671,58.5 3.70287,32.72231 4.48672,42.55384 3.37241,42.29876 -0.48352,-0.11069 -4.47913,-0.32144 -8.87913,-0.46834 z m 173.5,-102.33042 v -5 h -24 -24 v 5 5 h 24 24 z m -114.82496,-131.428 c 22.15281,-5.29615 40.92937,-23.19547 47.1064,-44.90559 l 2.03901,-7.16641 0.41173,-32.6487 0.41172,-32.648699 -3.32195,-1.01709 c -9.49653,-2.907577 -16.25667,-2.235246 -22.74658,2.262263 -3.82226,2.648831 -6.71053,6.500476 -15.63654,20.852146 -5.68993,9.14854 -13.05123,16.4565 -20.25235,20.10558 -9.49458,4.81127 -15.77192,5.74488 -42.43648,6.31147 l -24.75,0.5259 0.007,3.62856 c 0.004,1.99572 0.62905,7.77038 1.38924,12.83259 l 1.38217,9.20402 4.27228,8.46322 c 8.88542,17.60162 22.71953,28.72374 42.44924,34.12764 6.46085,1.7696 22.41452,1.8089 29.67504,0.0731 z m -26.87812,212.10886 -11.20309,-11.18086 1.02278,-17 c 0.56253,-9.35 2.22892,-33.425 3.70309,-53.5 l 2.6803,-36.5 h 16 16 l 2.12561,30 c 1.16909,16.5 2.84907,40.575 3.73329,53.5 l 1.60768,23.5 -11.21698,11.25 c -6.16934,6.1875 -11.67432,11.21889 -12.23329,11.18086 -0.55897,-0.038 -6.0577,-5.10053 -12.21939,-11.25 z m -5.15074,-130.43086 c -0.5083,-0.9625 -2.81715,-7.7878 -5.13078,-15.16733 -2.31362,-7.37954 -4.43672,-14.01704 -4.71799,-14.75 l -0.51139,-1.33267 h 27.10699 27.10699 v 1.5561 c 0,0.85586 -2.12176,8.28086 -4.71503,16.5 l -4.71503,14.9439 H 269.3774 252.62762 Z"
       id="path1" />
  </g>
</svg>
